<svg width="16" height="20" viewBox="0 0 16 20" fill="none" xmlns="http://www.w3.org/2000/svg">
<path d="M15.8766 12.0465L8.29789 19.8725C8.25878 19.9129 8.21235 19.945 8.16123 19.9669C8.11012 19.9887 8.05533 20 8 20C7.94467 20 7.88988 19.9887 7.83877 19.9669C7.78765 19.945 7.74122 19.9129 7.70211 19.8725L0.123388 12.0465C0.0443839 11.965 -2.20244e-09 11.8543 0 11.7389C2.20244e-09 11.6236 0.0443843 11.5129 0.123389 11.4313C0.202393 11.3497 0.309545 11.3039 0.421274 11.3039C0.533003 11.3039 0.640156 11.3497 0.719161 11.4313L7.57896 18.5149V0.434775C7.57896 0.319466 7.62332 0.208879 7.70228 0.127343C7.78124 0.0458066 7.88833 0 8 0C8.11167 0 8.21876 0.0458066 8.29772 0.127343C8.37668 0.208879 8.42104 0.319466 8.42104 0.434775V18.5149L15.2808 11.4313C15.3598 11.3497 15.467 11.3039 15.5787 11.3039C15.6905 11.3039 15.7976 11.3497 15.8766 11.4313C15.9556 11.5129 16 11.6236 16 11.7389C16 11.8543 15.9556 11.965 15.8766 12.0465Z" fill="#272020"/>
</svg>
