<svg width="16" height="16" viewBox="0 0 16 16" fill="none" xmlns="http://www.w3.org/2000/svg">
<path d="M15.9094 4.3235C15.8633 4.25628 15.8022 4.20142 15.7311 4.16353C15.6601 4.12564 15.5812 4.10584 15.5012 4.10578H13.9348L10.7134 1.28664C10.3212 0.883902 9.6845 0.883386 9.2923 1.28664L6.1257 4.10578H4.83649L4.0292 1.24716C3.71261 0.121517 2.96033 0 2.65178 0H0.499C0.223118 0 0 0.22936 0 0.512384C0 0.795408 0.223353 1.02475 0.498984 1.02475H2.65127C2.71936 1.02475 2.92715 1.02475 3.06887 1.52759L5.84604 12.0077C5.90634 12.2288 6.10257 12.3816 6.32644 12.3816H13.1099C13.3205 12.3816 13.5084 12.2461 13.5795 12.0425L15.9705 4.79151C16.0255 4.63439 16.0027 4.45947 15.9094 4.3235H15.9094ZM10.0029 2.01651L12.3904 4.10604H7.61471L10.0029 2.01651ZM12.7587 11.3571H6.70517L5.11671 5.13079H14.7917L12.7587 11.3571ZM11.769 13.42C11.0751 13.42 10.5127 13.9974 10.5127 14.71C10.5127 15.4226 11.0751 16 11.769 16C12.463 16 13.0253 15.4226 13.0253 14.71C13.0253 13.9974 12.463 13.42 11.769 13.42ZM7.24638 13.42C6.5524 13.42 5.99009 13.9974 5.99009 14.71C5.99009 15.4226 6.5524 16 7.24638 16C7.94036 16 8.50267 15.4226 8.50267 14.71C8.50267 13.9974 7.94036 13.42 7.24638 13.42Z" fill="white"/>
</svg>
