<svg width="55" height="55" viewBox="0 0 55 55" fill="none" xmlns="http://www.w3.org/2000/svg">
<circle cx="27.5" cy="27.5" r="27.5" fill="#5B4E50"/>
<g clip-path="url(#clip0_7_19)">
<path d="M28.7211 20.3855C28.552 20.1195 28.2866 19.9291 27.9805 19.8541C27.6743 19.7791 27.3509 19.8253 27.078 19.983C26.8051 20.1408 26.6037 20.3979 26.5158 20.7007C26.428 21.0034 26.4606 21.3284 26.6067 21.6077L29.6622 26.9122L22.2433 25.6899L28.7089 38.6333C28.859 38.9132 29.1122 39.1237 29.4148 39.2202C29.7175 39.3166 30.0458 39.2915 30.3302 39.1501C30.6146 39.0087 30.8328 38.7621 30.9385 38.4626C31.0443 38.1631 31.0293 37.8341 30.8967 37.5455L26.5822 28.8922L34.38 30.1877L28.7211 20.3855Z" fill="#F8F8F8"/>
<path d="M36.7022 10.8889H34.1111V10.3756C34.1111 9.86341 33.9077 9.37222 33.5455 9.01007C33.1833 8.64791 32.6922 8.44446 32.18 8.44446H23.82C23.3078 8.44446 22.8167 8.64791 22.4545 9.01007C22.0923 9.37222 21.8889 9.86341 21.8889 10.3756V10.8889H19.2978C18.6884 10.8889 18.1039 11.131 17.673 11.5619C17.2421 11.9928 17 12.5773 17 13.1867V45.2578C17 45.5595 17.0594 45.8583 17.1749 46.1371C17.2904 46.4159 17.4596 46.6692 17.673 46.8826C17.8864 47.0959 18.1397 47.2652 18.4185 47.3807C18.6972 47.4961 18.996 47.5556 19.2978 47.5556H36.7022C37.3116 47.5556 37.8961 47.3135 38.327 46.8826C38.7579 46.4516 39 45.8672 39 45.2578V13.1867C39 12.5773 38.7579 11.9928 38.327 11.5619C37.8961 11.131 37.3116 10.8889 36.7022 10.8889ZM36.5556 45.1111H19.4444V13.3333H24.3333V10.8889H31.6667V13.3333H36.5556V45.1111Z" fill="#F8F8F8"/>
</g>
<defs>
<clipPath id="clip0_7_19">
<rect width="44" height="44" fill="white" transform="translate(6 6)"/>
</clipPath>
</defs>
</svg>
