<svg width="55" height="55" viewBox="0 0 55 55" fill="none" xmlns="http://www.w3.org/2000/svg">
<circle cx="27.5" cy="27.5" r="27.5" fill="#5B4E50"/>
<path d="M9.625 30.5177V24.4824C9.625 23.6205 9.96741 22.7938 10.5769 22.1843C11.1864 21.5748 12.013 21.2324 12.875 21.2324H17.5875C17.9052 21.2323 18.216 21.1391 18.4812 20.9643L28.2312 14.5358C28.4762 14.3745 28.7603 14.2825 29.0533 14.2695C29.3464 14.2566 29.6375 14.3232 29.8957 14.4623C30.1539 14.6014 30.3697 14.8079 30.5201 15.0597C30.6705 15.3115 30.75 15.5994 30.75 15.8927V39.1074C30.75 39.4008 30.6705 39.6886 30.5201 39.9404C30.3697 40.1922 30.1539 40.3987 29.8957 40.5378C29.6375 40.6769 29.3464 40.7435 29.0533 40.7306C28.7603 40.7176 28.4762 40.6256 28.2312 40.4643L18.4812 34.0358C18.216 33.861 17.9052 33.7678 17.5875 33.7677H12.875C12.013 33.7677 11.1864 33.4253 10.5769 32.8158C9.96741 32.2063 9.625 31.3796 9.625 30.5177Z" stroke="#F6F6F6" stroke-width="2"/>
<path d="M36.4375 20.1875C36.4375 20.1875 38.875 22.625 38.875 26.6875C38.875 30.75 36.4375 33.1875 36.4375 33.1875M41.3125 15.3125C41.3125 15.3125 45.375 19.375 45.375 26.6875C45.375 34 41.3125 38.0625 41.3125 38.0625" stroke="#F6F6F6" stroke-width="2" stroke-linecap="round" stroke-linejoin="round"/>
</svg>
