<svg width="86" height="17" viewBox="0 0 86 17" fill="none" xmlns="http://www.w3.org/2000/svg">
<path d="M8.56135 14.1731L4.41135 16.6731C4.22802 16.7898 4.03635 16.8398 3.83635 16.8231C3.63635 16.8065 3.46135 16.7398 3.31135 16.6231C3.16135 16.5065 3.04468 16.3608 2.96135 16.1861C2.87802 16.0108 2.86135 15.8148 2.91135 15.5981L4.01135 10.8731L0.33635 7.69814C0.169683 7.54814 0.065683 7.37714 0.0243497 7.18514C-0.0176503 6.99381 -0.00531702 6.80648 0.0613497 6.62315C0.128016 6.43981 0.228016 6.28981 0.36135 6.17314C0.494683 6.05648 0.678016 5.98148 0.91135 5.94814L5.76135 5.52314L7.63635 1.07314C7.71968 0.873145 7.84902 0.723145 8.02435 0.623145C8.19902 0.523145 8.37802 0.473145 8.56135 0.473145C8.74468 0.473145 8.92402 0.523145 9.09935 0.623145C9.27402 0.723145 9.40302 0.873145 9.48635 1.07314L11.3614 5.52314L16.2113 5.94814C16.4447 5.98148 16.628 6.05648 16.7614 6.17314C16.8947 6.28981 16.9947 6.43981 17.0613 6.62315C17.128 6.80648 17.1407 6.99381 17.0993 7.18514C17.0573 7.37714 16.953 7.54814 16.7864 7.69814L13.1113 10.8731L14.2113 15.5981C14.2613 15.8148 14.2447 16.0108 14.1614 16.1861C14.078 16.3608 13.9613 16.5065 13.8113 16.6231C13.6613 16.7398 13.4864 16.8065 13.2864 16.8231C13.0864 16.8398 12.8947 16.7898 12.7113 16.6731L8.56135 14.1731Z" fill="#E78C38"/>
<path d="M25.5613 14.1731L21.4113 16.6731C21.228 16.7898 21.0363 16.8398 20.8363 16.8231C20.6363 16.8065 20.4613 16.7398 20.3113 16.6231C20.1613 16.5065 20.0447 16.3608 19.9613 16.1861C19.878 16.0108 19.8613 15.8148 19.9113 15.5981L21.0113 10.8731L17.3363 7.69814C17.1697 7.54814 17.0657 7.37714 17.0243 7.18514C16.9823 6.99381 16.9947 6.80648 17.0613 6.62315C17.128 6.43981 17.228 6.28981 17.3613 6.17314C17.4947 6.05648 17.678 5.98148 17.9113 5.94814L22.7613 5.52314L24.6363 1.07314C24.7197 0.873145 24.849 0.723145 25.0244 0.623145C25.199 0.523145 25.378 0.473145 25.5613 0.473145C25.7447 0.473145 25.924 0.523145 26.0993 0.623145C26.274 0.723145 26.403 0.873145 26.4864 1.07314L28.3614 5.52314L33.2113 5.94814C33.4447 5.98148 33.628 6.05648 33.7614 6.17314C33.8947 6.28981 33.9947 6.43981 34.0613 6.62315C34.128 6.80648 34.1407 6.99381 34.0993 7.18514C34.0574 7.37714 33.953 7.54814 33.7864 7.69814L30.1113 10.8731L31.2113 15.5981C31.2613 15.8148 31.2447 16.0108 31.1614 16.1861C31.078 16.3608 30.9613 16.5065 30.8113 16.6231C30.6614 16.7398 30.4864 16.8065 30.2864 16.8231C30.0864 16.8398 29.8947 16.7898 29.7113 16.6731L25.5613 14.1731Z" fill="#E78C38"/>
<path d="M42.5613 14.1731L38.4113 16.6731C38.228 16.7898 38.0363 16.8398 37.8363 16.8231C37.6363 16.8065 37.4613 16.7398 37.3113 16.6231C37.1613 16.5065 37.0447 16.3608 36.9613 16.1861C36.878 16.0108 36.8613 15.8148 36.9113 15.5981L38.0113 10.8731L34.3363 7.69814C34.1697 7.54814 34.0657 7.37714 34.0243 7.18514C33.9823 6.99381 33.9947 6.80648 34.0613 6.62315C34.128 6.43981 34.228 6.28981 34.3613 6.17314C34.4947 6.05648 34.678 5.98148 34.9113 5.94814L39.7613 5.52314L41.6363 1.07314C41.7197 0.873145 41.849 0.723145 42.0244 0.623145C42.199 0.523145 42.378 0.473145 42.5613 0.473145C42.7447 0.473145 42.924 0.523145 43.0993 0.623145C43.274 0.723145 43.403 0.873145 43.4864 1.07314L45.3614 5.52314L50.2113 5.94814C50.4447 5.98148 50.628 6.05648 50.7614 6.17314C50.8947 6.28981 50.9947 6.43981 51.0613 6.62315C51.128 6.80648 51.1407 6.99381 51.0993 7.18514C51.0574 7.37714 50.953 7.54814 50.7864 7.69814L47.1113 10.8731L48.2113 15.5981C48.2613 15.8148 48.2447 16.0108 48.1614 16.1861C48.078 16.3608 47.9613 16.5065 47.8113 16.6231C47.6614 16.7398 47.4864 16.8065 47.2864 16.8231C47.0864 16.8398 46.8947 16.7898 46.7113 16.6731L42.5613 14.1731Z" fill="#E78C38"/>
<path d="M59.5613 14.1731L55.4113 16.6731C55.228 16.7898 55.0363 16.8398 54.8363 16.8231C54.6363 16.8065 54.4613 16.7398 54.3113 16.6231C54.1613 16.5065 54.0447 16.3608 53.9613 16.1861C53.878 16.0108 53.8613 15.8148 53.9113 15.5981L55.0113 10.8731L51.3363 7.69814C51.1697 7.54814 51.0657 7.37714 51.0243 7.18514C50.9823 6.99381 50.9947 6.80648 51.0613 6.62315C51.128 6.43981 51.228 6.28981 51.3613 6.17314C51.4947 6.05648 51.678 5.98148 51.9113 5.94814L56.7613 5.52314L58.6363 1.07314C58.7197 0.873145 58.849 0.723145 59.0244 0.623145C59.199 0.523145 59.378 0.473145 59.5613 0.473145C59.7447 0.473145 59.924 0.523145 60.0993 0.623145C60.274 0.723145 60.403 0.873145 60.4864 1.07314L62.3614 5.52314L67.2113 5.94814C67.4447 5.98148 67.628 6.05648 67.7614 6.17314C67.8947 6.28981 67.9947 6.43981 68.0613 6.62315C68.128 6.80648 68.1407 6.99381 68.0993 7.18514C68.0574 7.37714 67.953 7.54814 67.7864 7.69814L64.1113 10.8731L65.2113 15.5981C65.2613 15.8148 65.2447 16.0108 65.1614 16.1861C65.078 16.3608 64.9613 16.5065 64.8113 16.6231C64.6614 16.7398 64.4864 16.8065 64.2864 16.8231C64.0864 16.8398 63.8947 16.7898 63.7113 16.6731L59.5613 14.1731Z" fill="#E78C38"/>
<path d="M76.5613 14.1731L72.4113 16.6731C72.228 16.7898 72.0363 16.8398 71.8363 16.8231C71.6363 16.8065 71.4613 16.7398 71.3113 16.6231C71.1613 16.5065 71.0447 16.3608 70.9613 16.1861C70.878 16.0108 70.8613 15.8148 70.9113 15.5981L72.0113 10.8731L68.3363 7.69814C68.1697 7.54814 68.0657 7.37714 68.0243 7.18514C67.9823 6.99381 67.9947 6.80648 68.0613 6.62315C68.128 6.43981 68.228 6.28981 68.3613 6.17314C68.4947 6.05648 68.678 5.98148 68.9113 5.94814L73.7613 5.52314L75.6363 1.07314C75.7197 0.873145 75.849 0.723145 76.0244 0.623145C76.199 0.523145 76.378 0.473145 76.5613 0.473145C76.7447 0.473145 76.924 0.523145 77.0993 0.623145C77.274 0.723145 77.403 0.873145 77.4864 1.07314L79.3614 5.52314L84.2113 5.94814C84.4447 5.98148 84.628 6.05648 84.7614 6.17314C84.8947 6.28981 84.9947 6.43981 85.0613 6.62315C85.128 6.80648 85.1407 6.99381 85.0993 7.18514C85.0573 7.37714 84.953 7.54814 84.7864 7.69814L81.1113 10.8731L82.2113 15.5981C82.2613 15.8148 82.2447 16.0108 82.1614 16.1861C82.078 16.3608 81.9613 16.5065 81.8113 16.6231C81.6613 16.7398 81.4864 16.8065 81.2864 16.8231C81.0864 16.8398 80.8947 16.7898 80.7113 16.6731L76.5613 14.1731Z" fill="#ADACAD"/>
</svg>
